<svg id="Layer_1" data-name="Layer 1" xmlns="http://www.w3.org/2000/svg" viewBox="0 0 600 600"><defs><style>.cls-1{fill:#10004a;}</style></defs><path class="cls-1" d="M40,40V560H560V40ZM244.52,394.74c-21.56,18.17-50,28.17-80.05,28.17v-50a77.18,77.18,0,0,0,40.71-11.15h65.44A101.55,101.55,0,0,1,244.52,394.74Zm35.36-73h0v.33h-140v-120h140v40h-100v40h100v39.66h0Zm144.79,73c-21.56,18.17-50,28.17-80,28.17v-50c35.92,0,65.16-22.77,65.39-50.82H320v-120H460v40H360v40H460v39.66h0C460,349.61,447.47,375.53,424.67,394.74Z"/></svg>