<svg id="Layer_1" data-name="Layer 1" xmlns="http://www.w3.org/2000/svg" viewBox="0 0 1600 1600"><defs><style>.cls-1{font-size:140px;font-family:NocturneSerif-SemiBold, Nocturne Serif;font-weight:600;}.cls-2{fill:#10004a;}</style></defs><text class="cls-1" transform="translate(186.53 1164.49)">OurCancerStories</text><path class="cls-2" d="M540,394.91v520h520v-520ZM744.52,749.65c-21.56,18.17-50,28.17-80,28.17v-50a77.18,77.18,0,0,0,40.71-11.15h65.44A101.65,101.65,0,0,1,744.52,749.65Zm35.36-73h0V677h-140V557h140v40h-100v40h100v39.66h0Zm144.8,73c-21.57,18.17-50,28.17-80,28.17v-50c35.92,0,65.16-22.77,65.39-50.82H820V557H960v40H860v40H960v39.66h0C960,704.52,947.47,730.44,924.68,749.65Z"/></svg>